<svg width="20" height="20" viewBox="0 0 20 20" fill="none" xmlns="http://www.w3.org/2000/svg">
<path d="M5.41659 15.4166C5.20337 15.4166 4.99015 15.3352 4.8274 15.1724C4.50187 14.8469 4.50187 14.3196 4.8274 13.9941L13.9941 4.8274C14.3196 4.50187 14.8469 4.50187 15.1724 4.8274C15.498 5.15292 15.498 5.68026 15.1724 6.00578L6.00578 15.1724C5.84302 15.3352 5.62981 15.4166 5.41659 15.4166Z" fill="#FF6600"/>
<path d="M14.5833 15.4166C14.37 15.4166 14.1568 15.3352 13.9941 15.1724L4.8274 6.00578C4.50187 5.68025 4.50187 5.15291 4.8274 4.82739C5.15292 4.50188 5.68026 4.50187 6.00578 4.82739L15.1724 13.9941C15.498 14.3196 15.498 14.8469 15.1724 15.1724C15.0097 15.3352 14.7965 15.4166 14.5833 15.4166Z" fill="#FF6600"/>
</svg>
