<svg width="44" height="44" viewBox="0 0 44 44" fill="none" xmlns="http://www.w3.org/2000/svg">
<rect width="44" height="44" rx="22" fill="#FF6600"/>
<path d="M22.7071 31.1921C22.5261 31.3731 22.2762 31.4849 22 31.4849C21.4475 31.4849 21.0001 31.0375 21.0001 30.485V13.5145C21.0001 12.962 21.4475 12.5146 22 12.5146C22.5524 12.5146 22.9999 12.962 22.9999 13.5145L22.9999 30.485C22.9999 30.7613 22.888 31.0112 22.7071 31.1921Z" fill="white"/>
<path d="M31.1923 22.7069C31.0114 22.8878 30.7615 22.9996 30.4852 22.9996L13.5147 22.9996C12.9622 22.9996 12.5148 22.5522 12.5148 21.9998C12.5148 21.4473 12.9623 20.9999 13.5147 20.9999L30.4852 20.9999C31.0377 20.9999 31.4851 21.4473 31.4851 21.9998C31.4851 22.276 31.3733 22.5259 31.1923 22.7069Z" fill="white"/>
</svg>
