<svg width="24" height="24" viewBox="0 0 24 24" fill="none" xmlns="http://www.w3.org/2000/svg">
<path d="M12.167 22.333C6.56054 22.333 2 17.7724 2 12.1665C2 6.56055 6.56054 2 12.167 2C17.7734 2 22.334 6.56054 22.334 12.1665C22.334 17.7725 17.7734 22.333 12.167 22.333ZM12.167 4C7.66406 4 4 7.66357 4 12.1665C4 16.6694 7.66406 20.333 12.167 20.333C16.6699 20.333 20.334 16.6694 20.334 12.1665C20.334 7.66357 16.6699 4 12.167 4Z" fill="#FF6600"/>
<path d="M12.167 16.833C11.6143 16.833 11.167 16.3853 11.167 15.833V12.1665C11.167 11.6143 11.6143 11.1665 12.167 11.1665C12.7197 11.1665 13.167 11.6143 13.167 12.1665V15.833C13.167 16.3853 12.7197 16.833 12.167 16.833Z" fill="#FF6600"/>
<path d="M12.1768 9.5C11.624 9.5 11.1719 9.05225 11.1719 8.5C11.1719 7.94775 11.6143 7.5 12.167 7.5H12.1768C12.7295 7.5 13.1768 7.94775 13.1768 8.5C13.1768 9.05225 12.7295 9.5 12.1768 9.5Z" fill="#FF6600"/>
</svg>
